<svg width="27" height="20" viewBox="0 0 27 20" fill="none" xmlns="http://www.w3.org/2000/svg">
<g clip-path="url(#clip0_3101_464)">
<path d="M9.68549 9.11254C10.1032 8.24462 10.5222 7.37713 10.9381 6.50834C11.3653 5.61523 11.7782 4.71518 12.2202 3.82989C12.4469 3.37531 12.5407 2.91074 12.5137 2.40796C12.4334 0.920896 11.2003 -0.150657 9.72978 0.0351719C8.49454 0.191476 7.62184 0.898319 7.05177 1.97508C6.68054 2.67585 6.36229 3.4044 6.02363 4.12209C5.71015 4.78682 5.37019 5.43939 5.09015 6.11975C5.05628 6.18314 5.01981 6.24566 4.98898 6.31035C4.17707 8.00799 3.36168 9.70389 2.55628 11.4041C1.78258 13.0366 1.02059 14.6748 0.25036 16.3091C0.0410856 16.7532 -0.0292513 17.2165 0.0115614 17.7023C0.128355 19.083 1.30845 20.0977 2.6848 19.9744C3.9869 19.8576 4.88695 19.1243 5.43445 17.9889C6.28805 16.2187 7.12471 14.4395 7.97743 12.6689C8.54795 11.484 9.11628 10.2983 9.68549 9.11298V9.11254Z" fill="#FB923C"/>
<path d="M26.0537 16.0425C25.5422 15.0004 25.0481 13.9493 24.5466 12.9025C24.3512 12.4948 24.1546 12.0875 23.9587 11.6803C23.6322 10.9904 23.3079 10.2991 22.9792 9.6101C22.0466 7.65673 21.1118 5.70466 20.1779 3.75216C19.9048 3.18078 19.6252 2.61201 19.3604 2.03672C19.0152 1.28733 18.4898 0.706401 17.76 0.322587C16.7062 -0.231859 15.5009 -0.0594897 14.6686 0.749819C13.8828 1.51354 13.6891 2.67757 14.1754 3.68921C15.4562 6.3555 16.7336 9.02309 18.0153 11.6885C18.4316 12.5543 18.8567 13.4157 19.2779 14.2793C19.2826 14.3001 19.2835 14.3231 19.2926 14.3422C19.894 15.6157 20.4797 16.8969 21.1036 18.1591C21.4926 18.9462 22.12 19.5076 22.9527 19.8107C24.3538 20.3209 25.8131 19.6592 26.2551 18.3141C26.5121 17.5317 26.4153 16.7784 26.0541 16.0425H26.0537Z" fill="#FB923C"/>
<path d="M13.2958 5.85358C13.2732 5.80755 13.2697 5.73591 13.1768 5.73722C12.7891 6.53089 12.3953 7.32674 12.0106 8.1265C11.5821 9.01787 11.1618 9.91314 10.7376 10.8067C10.7228 10.8314 10.7055 10.8549 10.6933 10.8809C9.83449 12.6941 8.97352 14.5059 8.11862 16.3212C7.92845 16.7254 7.84161 17.1557 7.85247 17.6055C7.88763 19.0717 9.15109 20.1684 10.5986 19.9787C11.7206 19.832 12.5069 19.1915 13.0887 18.2589C13.2493 18.0015 13.3544 17.7166 13.4829 17.4435C13.7873 16.7962 14.0864 16.1466 14.3873 15.498C14.9977 14.2918 15.5083 13.0388 16.1049 11.8261C16.1501 11.7341 16.1223 11.6638 16.0832 11.583C15.1536 9.67348 14.2258 7.76309 13.2962 5.85401L13.2958 5.85358Z" fill="#FB923C"/>
</g>
<defs>
<clipPath id="clip0_3101_464">
<rect width="26.3994" height="20" fill="white"/>
</clipPath>
</defs>
</svg>

